<?xml version="1.0" encoding="UTF-8"?>
<svg xmlns="http://www.w3.org/2000/svg" xmlns:xlink="http://www.w3.org/1999/xlink" version="1.1" viewBox="0 0 816.9 200">
  <defs>
    <style>
      .cls-1 {
        fill: none;
      }

      .cls-2 {
        fill: #f36746;
      }

      .cls-3 {
        fill: #fff;
      }

      .cls-4 {
        clip-path: url(#clippath);
      }

      .cls-5 {
        fill: #044096;
      }
    </style>
    <clipPath id="clippath">
      <polygon class="cls-1" points="125.8 18 125.8 18 125.8 18 125.8 18"/>
    </clipPath>
  </defs>
  <!-- Generator: Adobe Illustrator 28.7.1, SVG Export Plug-In . SVG Version: 1.2.0 Build 142)  -->
  <g>
    <g id="Layer_1">
      <g id="logo-type">
        <g>
          <path class="cls-5" d="M187.6,89.6c-.1-3.6.5-7,1.8-10.4,1.3-3.4,3.3-6.7,5.7-9.9,2.5-3.2,5.4-6.2,8.7-9.1,3.4-2.9,7-5.5,10.8-8,3.9-2.5,7.8-4.7,12-6.7,4.1-2,8.2-3.7,12.3-5.2,4-1.5,7.9-2.6,11.6-3.5,3.7-.8,7-1.3,10-1.5,1.9-.1,3.7,0,5.3.2,1.7.3,3.1.8,4.3,1.6,1.2.8,2.2,1.9,3,3.2.8,1.4,1.2,3.2,1.3,5.4,0,.9-.3,2.2-1,3.8-.8,1.6-1.7,3.3-3,5.1-1.2,1.8-2.6,3.7-4.2,5.5-1.6,1.8-3.2,3.5-4.8,5-1.6,1.5-3.2,2.7-4.7,3.7-1.5,1-2.9,1.5-4.1,1.6-1.5,0-2.8-.4-3.8-1.5-1-1-1.6-2.2-1.9-3.4-.3-1.3-.2-2.4.4-3.5.5-1.1,1.6-1.7,3.1-1.7.1,0,.6-.2,1.5-.7.8-.5,1.9-1.1,3.1-1.9,1.2-.8,2.5-1.7,3.9-2.7,1.4-1,2.6-2,3.8-3.1,1.2-1,2.1-2.1,2.9-3.1.8-1,1.1-1.9,1-2.6-.1-1.4-2.5-2.1-7.1-1.9-3.4.1-7.3.8-11.9,2.2-4.5,1.3-9.2,3.1-14,5.3-4.8,2.2-9.5,4.8-14.2,7.8-4.7,3-8.8,6.2-12.4,9.7-3.6,3.5-6.5,7.2-8.6,11.1-2.2,3.9-3.1,7.9-3,11.9.1,3.3.9,6,2.3,8.3,1.4,2.3,3.1,4.1,5.3,5.4,2.2,1.3,4.6,2.3,7.4,2.8,2.8.5,5.7.7,8.6.6,7.7-.3,15.1-1.7,22.2-4,7.1-2.4,13.8-5.7,20-10.1,1.3-.9,2.5-1.6,3.6-2.1,1.1-.5,1.9-.8,2.6-.8s1.2.5,1.1,1.5c0,1-.8,2.6-2.1,4.8-.4.7-1,1.4-1.8,2.1-.8.7-1.6,1.4-2.5,2.1-3,2.3-6.3,4.3-9.9,6-3.6,1.8-7.3,3.2-11.1,4.5-3.9,1.2-7.7,2.2-11.7,2.9-3.9.7-7.7,1.1-11.4,1.2-4.1.2-7.9-.4-11.5-1.7-3.6-1.3-6.7-3.2-9.4-5.7-2.7-2.5-4.9-5.5-6.6-8.9-1.7-3.5-2.6-7.3-2.8-11.3Z"/>
          <path class="cls-5" d="M262.2,102.7c-.1-1.2,0-2.1.3-2.7.3-.6.8-1.2,1.5-1.9,1-1.6,2.2-3.4,3.7-5.2,1.5-1.8,3.1-3.7,4.8-5.6l17.8-23.1c1.6-2.2,3.3-4.5,5.1-7,1.8-2.5,3.5-5,5.3-7.6,1.8-2.5,3.6-5,5.3-7.4,1.8-2.4,3.4-4.5,5-6.3,1.6-1.8,3-3.3,4.3-4.5,1.3-1.2,2.4-1.8,3.2-1.8.9,0,1.7.1,2.6.6.8.5,1.5,1.1,2.1,1.8.5.8.9,1.6,1,2.5s0,1.8-.5,2.7c-.8,1.4-2,3.1-3.6,4.8-1.6,1.8-3.3,3.7-5.3,5.8-2,2.1-4.1,4.3-6.3,6.6-2.3,2.3-4.5,4.7-6.8,7.2-1.1,1.1-2,2.2-2.9,3.3-.9,1.1-2,2.4-3.3,4.1,1.1-.5,2.4-1.1,3.8-1.8,1.4-.7,2.8-1.3,4.3-2,1.4-.6,2.8-1.1,4.1-1.6,1.3-.4,2.4-.6,3.4-.6s1.7.2,2.6.6c.8.4,1.6.9,2.3,1.6.7.7,1.2,1.4,1.6,2.3.4.9.6,1.8.6,2.6,0,1.6-.4,3.2-1.3,4.8-.8,1.7-1.8,3.3-2.8,4.9-1,1.6-1.9,3.3-2.8,4.9-.8,1.6-1.3,3.2-1.3,4.8s.8,2.7,2.5,2.7,3-.3,4.8-1c1.8-.7,3.7-1.6,5.7-2.6,2-1.1,3.9-2.2,5.8-3.4,1.9-1.2,3.6-2.4,5.2-3.4,1.5-1.1,2.8-1.9,3.8-2.6,1-.7,1.5-1,1.6-1,.7,0,1.2.3,1.5.9.3.6.4,1.2.2,1.6-.3,1-1.1,2.2-2.3,3.6-1.3,1.4-2.7,2.9-4.5,4.3-1.7,1.5-3.6,2.9-5.6,4.4-2,1.4-4,2.7-5.9,3.9-1.9,1.1-3.7,2-5.4,2.7-1.7.7-3,1-3.9,1s-2.7-.4-4-1.1c-1.4-.7-2.6-1.6-3.7-2.8-1.1-1.1-1.9-2.4-2.6-3.8-.7-1.4-1-2.7-1-4s.3-3.3.9-4.8c.6-1.5,1.3-3,2.1-4.4.8-1.4,1.6-2.8,2.4-4.2.8-1.4,1.5-2.9,1.9-4.4h-.3c-1.4,0-3.5.8-6.2,2.3-2.7,1.6-5.6,3.5-8.6,5.9-3.1,2.4-6.1,4.9-9.1,7.6-3,2.7-5.5,5.2-7.5,7.5-1.1,1.8-2.2,3.6-3.2,5.4-1,1.8-1.9,3.4-2.7,5-.7,1.3-1.5,2.2-2.4,2.8-.9.6-1.8.9-2.7.9s-2.2-.5-3.1-1.5c-.9-1-1.4-2.5-1.5-4.6Z"/>
          <path class="cls-5" d="M333.8,98.2c-.4.5-.8,1.1-1.2,1.8-.4.7-.9,1.3-1.5,1.9-.5.6-1.1,1.1-1.7,1.5-.6.4-1.2.6-1.9.6s-1.7-.4-2.5-1.1c-.9-.8-1.4-1.8-1.3-2.9s.4-2.3.9-3.4,1.3-2.2,2.1-3.2c.8-1,1.5-1.9,2.1-2.7,3-3.8,6.1-7.7,9.4-11.8,3.3-4,6.2-8.1,8.7-12.2.4-.6.8-1.2,1.4-2,.5-.8,1.1-1.4,1.8-2.1.7-.6,1.3-1.2,2.1-1.6.7-.4,1.5-.7,2.2-.7s1.1.2,1.7.5c.6.3,1.1.8,1.6,1.5.5.6.8,1.2.8,1.7,0,.5.1.9.1,1.2,0,.3.1.6.2.8.1.2.5.3,1,.3s1.3,0,2.4-.3c1.1-.2,2.6-.4,4.7-.8.7-.1,1.6-.3,2.8-.4,1.2-.2,2.4-.2,3.6-.2s1.8,0,2.6.2c.9.1,1.7.3,2.4.7.7.3,1.3.8,1.7,1.4.5.6.7,1.3.8,2.2.1,1.3-.2,2.2-1,2.7-.8.6-1.6.8-2.5.8s-1.6-.2-2.1-.8c-.7-.7-1.4-1-2.1-1s-.7,0-1,0c-.4,0-.8.2-1.3.3-4.7.8-8.8,1.9-12.3,3.4s-6.6,3.4-9.4,5.6c-2.8,2.3-5.5,4.9-7.9,7.8-2.4,3-5,6.3-7.5,10.1Z"/>
          <path class="cls-5" d="M374.1,89.7c0-1.2.5-2.8,1.4-4.7.9-1.9,2.2-4,3.7-6.3,1.5-2.2,3.2-4.4,5.1-6.7,1.9-2.2,3.8-4.2,5.6-6.1,1.9-1.8,3.6-3.3,5.3-4.4,1.7-1.1,3-1.7,4.1-1.7s1.3.2,2,.5c.7.3,1.4.8,2,1.4.6.6,1.1,1.2,1.5,1.8.4.7.6,1.3.6,1.9,0,1.1-.3,2-1,2.7-.7.8-1.5,1.3-2.4,1.6-1,.3-2.2.9-3.6,1.9-1.4.9-2.8,2.1-4.4,3.4-1.5,1.3-3.1,2.7-4.6,4.3-1.5,1.5-2.8,3.1-4,4.6-1.2,1.5-2.1,3-2.9,4.4-.8,1.4-1.1,2.6-1.1,3.7,0,1.6.5,2.5,1.4,2.8.9.3,2,.5,3.3.5s3.3-.7,5.9-2c2.5-1.3,5.3-3,8.4-5,3.1-2,6.3-4.2,9.5-6.6,3.3-2.4,6.4-4.6,9.3-6.6,1.7-1.3,2.9-1.9,3.6-1.9s.8.3.8.8-.1,1.2-.4,1.9c-.3.7-.6,1.4-.9,2-.4.7-.7,1.1-.8,1.3-2.4,2.8-5.2,5.6-8.4,8.4-3.2,2.9-6.4,5.4-9.8,7.8-3.4,2.3-6.7,4.2-9.9,5.7-3.3,1.5-6.2,2.2-8.8,2.2s-3.3-.4-4.6-1.3c-1.3-.8-2.4-1.9-3.2-3.3-.8-1.3-1.5-2.8-1.9-4.5-.4-1.6-.7-3.2-.7-4.7ZM405.1,50.7c0-.7.5-1.3,1.6-1.9,1-.6,2.1-.9,3.3-.9s1.2-.1,2.2-.4c.9-.3,1.8-.6,2.6-.9,1.4-.6,2.4-.8,3-.8s1,.3,1.2.8c.2.5.3,1.4.4,2.6,0,.9,0,1.6,0,2.3,0,.6-.3,1.2-.6,1.7-.3.5-.7,1-1.3,1.5-.6.5-1.4,1-2.3,1.6-1.9,1.3-3.6,2-5,2s-1.5-.3-2.2-.8c-.6-.5-1.2-1.2-1.6-1.9-.4-.8-.8-1.6-1-2.4-.2-.8-.3-1.6-.3-2.3Z"/>
          <path class="cls-5" d="M410.9,97.1c.9,0,2.1,0,3.8-.3,1.6-.2,3.3-.5,5-.9,1.7-.4,3.3-.9,4.7-1.6,1.5-.6,2.5-1.4,3-2.3,0-1.3-.4-2.6-1.3-3.7-.9-1.2-1.9-2.3-3-3.4s-2.2-2.3-3.3-3.6c-1.1-1.3-1.8-2.7-2.2-4.2-.2-.8.1-1.9.9-3.1.8-1.3,1.8-2.6,3.2-4,1.3-1.4,2.9-2.8,4.6-4.3,1.7-1.4,3.5-2.7,5.2-3.9,1.8-1.1,3.4-2.1,5-2.8,1.6-.7,2.9-1.1,4-1.1s2.3.3,3.1.9c.8.6,1.4,1.4,1.8,2.3.3.9.4,1.8.1,2.7-.3.9-.9,1.7-1.9,2.3-1.4.8-3,1.7-4.8,2.7-1.8,1-3.5,1.9-5.2,2.8-1.7.9-3.3,1.8-4.7,2.6-1.4.8-2.5,1.5-3.3,2.1,2.1,1.6,3.9,3.6,5.6,5.8,1.7,2.2,3.1,4.6,4.2,7,2.2-.8,4.3-1.7,6.3-2.7,2-1,3.8-2,5.6-3,1.8-1,3.4-2,4.9-2.9,1.5-.9,2.9-1.8,4.2-2.4.8-.5,1.5-.8,2.1-1,.6-.2,1.1-.2,1.6-.2.7,0,1.2.2,1.4.6.2.4.4.9.4,1.4s-.1,1.1-.3,1.6c-.2.5-.5.9-.7,1.2-.4.4-1.3,1.1-2.9,2.3-1.6,1.2-3.5,2.5-5.9,4-2.4,1.5-5.1,3.2-8.1,4.9-3,1.7-6.3,3.4-9.6,4.9-1.3,1.3-3,2.5-5.2,3.7-2.2,1.1-4.5,2.1-6.8,2.9-2.3.8-4.5,1.4-6.4,1.8-1.9.4-3.3.7-4,.7-1.3,0-2.3-.5-3-1.5-.7-1-1-2.1-1-3.3,0-1.2.2-2.3.8-3.3.5-1,1.3-1.6,2.3-1.6Z"/>
          <path class="cls-5" d="M542.5,117.9c.3-.4,1-1.3,2.1-2.7,1.1-1.4,2.4-3.1,3.9-5.2s3.2-4.4,5.1-6.9c1.9-2.5,3.8-5.1,5.6-7.8,1.9-2.6,3.7-5.2,5.5-7.7,1.8-2.5,3.3-4.7,4.7-6.6,1.4-1.9,2.5-3.5,3.3-4.7.8-1.2,1.2-1.9,1.2-1.9-3.1.2-6.8.4-11.1.6s-8.8.4-13.3.5c-4.5.2-8.7.3-12.8.5-4,.2-7.3.3-9.7.4-.3,0-.7.4-1.4,1.1-.7.8-1.4,1.7-2.2,2.8-.8,1.1-1.6,2.3-2.4,3.6-.8,1.3-1.6,2.6-2.4,3.8-.8,1.2-1.4,2.2-1.9,3.1-.5.9-.9,1.4-1.1,1.7-.6.8-1.4,2.1-2.6,3.8-1.2,1.7-2.3,3.5-3.5,5.5-1.2,1.9-2.2,3.7-3.1,5.5-.9,1.7-1.4,3-1.4,3.8,0,1.4-.4,2.4-1.3,3-.9.6-1.9.9-3,.9s-1.8-.2-2.6-.6c-.9-.4-1.6-.9-2.2-1.6-.6-.7-.9-1.6-1-2.6,0-1,.2-2.2,1-3.4.7-1.2,1.6-2.6,2.7-4.3,1.1-1.7,2.3-3.5,3.7-5.5,1.3-1.9,2.7-3.9,4-5.9,1.4-2,2.7-3.9,3.9-5.6,1.2-1.8,2.2-3.3,3.1-4.7.9-1.3,1.6-2.3,1.9-3-2.3.1-4.6.4-7,.8-2.4.4-4.8.7-7,.7s-3.2-.4-4.2-1.1c-1-.8-1.5-2-1.5-3.9s.2-2.4.5-2.9c.3-.6.8-.9,1.3-1.1.6-.2,1.3-.2,2.1,0,.8.1,1.8.2,2.9.2s2.5,0,4,0c1.6,0,3.2,0,5-.1,1.8,0,3.5-.2,5.2-.3,1.7-.1,3.2-.2,4.5-.3.1,0,.4-.2.8-.5.4-.2.7-.5.7-.8.4-.7,1-1.7,1.9-3.1s2-3.1,3.2-4.9c1.3-1.9,2.6-3.9,4-6,1.4-2.1,2.9-4.2,4.3-6.3,1.4-2.1,2.8-4,4.1-5.8s2.4-3.3,3.4-4.6c.6-.8,1.4-1.3,2.2-1.6.8-.3,1.7-.5,2.6-.5s1.8.2,2.7.5c.9.3,1.6.8,2.1,1.3.5.5.8,1.1.9,1.8,0,.7-.2,1.4-.8,2.1-.3.4-1,1.2-2,2.4s-2.2,2.7-3.6,4.5c-1.4,1.8-2.9,3.7-4.4,5.7-1.6,2-3.1,4-4.5,6-1.4,1.9-2.7,3.7-3.9,5.4-1.1,1.7-2,3-2.5,4h.3c1,0,2.6,0,4.7,0,2.2,0,4.7-.2,7.5-.3,2.9-.1,5.9-.3,9.1-.4,3.2-.2,6.4-.3,9.5-.5,3.1-.2,6-.3,8.6-.4,2.7-.1,4.8-.2,6.5-.3.4-.2,1.2-1,2.3-2.4,1.1-1.4,2.2-3.1,3.4-4.8,1.2-1.8,2.3-3.5,3.3-5.2,1-1.7,1.7-2.8,2.1-3.3,1.1-1.7,2.1-3.4,3.1-5.2,1-1.8,1.6-3.7,1.6-5.7s.2-1.3.6-1.7c.4-.4.8-.8,1.4-1.1.6-.3,1.2-.5,1.8-.6.7-.1,1.3-.2,1.8-.2.9,0,1.7.3,2.4.8.7.5,1.2,1.2,1.6,2,.4.8.8,1.7,1,2.6.2.9.3,1.8.3,2.7s-.3.8-.9,1.8c-.6,1-1.4,2.2-2.4,3.7-1,1.5-2.1,3.1-3.2,4.8-1.2,1.7-2.3,3.4-3.4,4.9-1.1,1.6-2.1,2.9-2.9,4.1-.8,1.2-1.3,2-1.6,2.4h1.4c.3,0,.7,0,1,0,.3,0,.7,0,1.1,0h1.4c.9,0,1.7.4,2.4,1.1.7.7,1,2.2,1.1,4.4,0,.8-.5,1.3-1.6,1.5-1.1.3-2.4.4-3.9.3-1.5,0-3.1-.1-4.8-.2-1.7-.1-3.1-.1-4.3,0-2.5,3.4-5.2,7.2-8.2,11.3-2.9,4.1-5.9,8.3-8.8,12.5-2.9,4.3-5.8,8.5-8.6,12.6-2.8,4.2-5.3,8.1-7.6,11.7-.3.5-.6,1.1-.9,1.8-.4.7-.8,1.3-1.2,2-.4.6-.9,1.2-1.5,1.6-.5.5-1.1.7-1.8.7-1.3,0-2.4-.4-3.2-1.1-.8-.7-1.4-1.6-1.7-2.7-.3-1.1-.4-2.2-.1-3.3.2-1.1.7-2.1,1.6-3Z"/>
          <path class="cls-5" d="M591.2,96.5c0-1.1.5-2.6,1.6-4.7,1.1-2.1,2.4-4.4,4.1-6.9,1.7-2.5,3.6-5.1,5.7-7.7,2.1-2.6,4.2-5,6.2-7.1,2-2.1,3.9-3.9,5.6-5.3,1.8-1.4,3.1-2.1,4.1-2.1s1,.2,1.6.6c.5.4,1,.9,1.5,1.5s.8,1.2,1.1,1.8c.3.6.5,1.2.5,1.6s-.5.9-1.6,2.1c-1.1,1.1-2.4,2.5-4,4.1-1.6,1.6-3.4,3.4-5.3,5.5-1.9,2-3.7,4-5.3,5.9-1.6,1.9-3,3.8-4.1,5.5-1.1,1.8-1.7,3.2-1.7,4.4v.2c.8,0,2.1-.7,3.7-2,1.7-1.3,3.6-2.8,5.7-4.7,2.1-1.9,4.4-4,6.7-6.3,2.3-2.3,4.6-4.5,6.7-6.6,2.1-2.2,3.9-4.1,5.5-5.8,1.6-1.7,2.7-3,3.3-3.8.6-.8,1.3-1.6,1.9-2.3.7-.7,1.6-1.1,2.8-1.1s1.1.2,1.7.5c.6.3,1.1.7,1.6,1.2.5.5.9,1,1.2,1.6.3.6.5,1.2.5,1.7,0,.9-.6,2.1-1.8,3.6-1.2,1.4-2.6,3-4,4.6s-2.8,3.2-4,4.8c-1.2,1.6-1.8,3.1-1.8,4.4s.2,3.4.5,4.7c.3,1.3,1.1,2,2.3,2s3.5-.5,5.6-1.6c2.1-1.1,4.3-2.4,6.5-4,2.2-1.6,4.4-3.3,6.6-5.2,2.2-1.8,4.1-3.6,5.9-5.1,1.4-1.3,2.8-1.9,4.2-1.9s1.3.2,1.8.5c.5.3.8.8,1,1.3.2.5.2,1.1,0,1.7-.2.7-.6,1.3-1.3,1.9-2.1,1.9-4.5,4.1-7.2,6.5-2.8,2.4-5.6,4.7-8.5,6.8-2.9,2.1-5.8,3.9-8.6,5.3-2.8,1.4-5.3,2.1-7.5,2.1s-3.2-.4-4.3-1.3c-1.1-.9-2-2-2.7-3.3-.7-1.3-1.1-2.7-1.4-4.3-.3-1.5-.4-3-.4-4.4l-.2-.3c-.5,0-1.3.5-2.3,1.5-1,.9-2.2,2-3.5,3.3-1.3,1.3-2.7,2.7-4.2,4.1-1.5,1.5-3,2.8-4.5,4.1-1.5,1.3-2.9,2.3-4.3,3.1-1.4.8-2.6,1.3-3.6,1.3s-2-.3-3.1-.8c-1.1-.5-2.1-1.1-3.1-1.9-1-.8-1.8-1.7-2.4-2.6-.7-1-1-1.9-1-2.9Z"/>
          <path class="cls-5" d="M651.9,98.2c-.4.5-.8,1.1-1.2,1.8-.4.7-.9,1.3-1.5,1.9-.5.6-1.1,1.1-1.7,1.5-.6.4-1.2.6-1.9.6s-1.7-.4-2.5-1.1c-.9-.8-1.4-1.8-1.3-2.9,0-1.1.4-2.3.9-3.4.6-1.1,1.3-2.2,2.1-3.2.8-1,1.5-1.9,2.1-2.7,3-3.8,6.1-7.7,9.4-11.8,3.3-4,6.2-8.1,8.7-12.2.4-.6.8-1.2,1.4-2,.5-.8,1.1-1.4,1.8-2.1.7-.6,1.3-1.2,2.1-1.6.7-.4,1.5-.7,2.2-.7s1.1.2,1.7.5c.6.3,1.1.8,1.6,1.5.5.6.8,1.2.8,1.7,0,.5.1.9.1,1.2,0,.3.1.6.2.8.1.2.5.3,1,.3s1.3,0,2.4-.3c1.1-.2,2.6-.4,4.7-.8.7-.1,1.6-.3,2.8-.4,1.2-.2,2.4-.2,3.6-.2s1.8,0,2.6.2c.9.1,1.7.3,2.4.7.7.3,1.3.8,1.7,1.4.5.6.7,1.3.8,2.2.1,1.3-.2,2.2-1,2.7-.8.6-1.6.8-2.5.8s-1.6-.2-2.1-.8c-.7-.7-1.4-1-2.1-1s-.7,0-1,0c-.4,0-.8.2-1.3.3-4.7.8-8.8,1.9-12.3,3.4-3.5,1.5-6.6,3.4-9.4,5.6-2.8,2.3-5.5,4.9-7.9,7.8-2.4,3-5,6.3-7.5,10.1Z"/>
          <path class="cls-5" d="M693.3,97.1c.9,0,2.1,0,3.8-.3,1.6-.2,3.3-.5,5-.9,1.7-.4,3.3-.9,4.7-1.6,1.5-.6,2.5-1.4,3-2.3,0-1.3-.4-2.6-1.3-3.7-.9-1.2-1.9-2.3-3-3.4s-2.2-2.3-3.3-3.6c-1.1-1.3-1.8-2.7-2.2-4.2-.2-.8.1-1.9.9-3.1.8-1.3,1.8-2.6,3.2-4,1.3-1.4,2.9-2.8,4.6-4.3,1.7-1.4,3.5-2.7,5.2-3.9,1.8-1.1,3.4-2.1,5-2.8,1.6-.7,2.9-1.1,4-1.1s2.3.3,3.1.9c.8.6,1.4,1.4,1.8,2.3.3.9.4,1.8.1,2.7s-.9,1.7-1.9,2.3c-1.4.8-3,1.7-4.8,2.7-1.8,1-3.5,1.9-5.2,2.8-1.7.9-3.3,1.8-4.7,2.6-1.4.8-2.5,1.5-3.3,2.1,2.1,1.6,3.9,3.6,5.6,5.8,1.7,2.2,3.1,4.6,4.2,7,2.2-.8,4.3-1.7,6.3-2.7,2-1,3.8-2,5.6-3,1.8-1,3.4-2,4.9-2.9,1.5-.9,2.9-1.8,4.2-2.4.8-.5,1.5-.8,2.1-1,.6-.2,1.1-.2,1.6-.2.7,0,1.2.2,1.4.6.2.4.4.9.4,1.4s-.1,1.1-.3,1.6c-.2.5-.5.9-.7,1.2-.4.4-1.3,1.1-2.9,2.3-1.6,1.2-3.5,2.5-5.9,4-2.4,1.5-5.1,3.2-8.1,4.9-3,1.7-6.3,3.4-9.6,4.9-1.3,1.3-3,2.5-5.2,3.7-2.2,1.1-4.5,2.1-6.8,2.9-2.3.8-4.5,1.4-6.4,1.8-1.9.4-3.3.7-4,.7-1.3,0-2.3-.5-3-1.5-.7-1-1-2.1-1-3.3,0-1.2.2-2.3.8-3.3.5-1,1.3-1.6,2.3-1.6Z"/>
          <path class="cls-5" d="M719.6,106.2c1.3-1.9,3.1-4.4,5.2-7.3s4.5-6.1,7-9.4c2.5-3.4,5.1-6.8,7.8-10.3,2.7-3.5,5.2-6.8,7.6-9.9,2.4-3.1,4.5-5.9,6.3-8.4,1.8-2.5,3.1-4.3,3.9-5.6-1.8,0-3.7.2-5.9.5-2.2.3-4.4.6-6.7,1-2.3.4-4.5.8-6.6,1.2-2.1.4-4.1.8-5.8,1.2-.8.1-1.4-.1-2-.7-.6-.6-1-1.4-1.3-2.3-.3-.9-.3-1.9-.1-2.9.2-1,.6-1.8,1.4-2.4.2-.2,1.1-.4,2.6-.6,1.5-.2,3.4-.4,5.6-.7,2.2-.2,4.6-.4,7.2-.6,2.6-.2,5-.4,7.4-.5,2.4-.2,4.5-.3,6.3-.4,1.8,0,3.1-.1,3.8-.1.9-1.3,1.7-2.3,2.3-3,.6-.8,1.1-1.5,1.6-2.2.5-.7,1-1.4,1.6-2.2.5-.8,1.2-1.8,2.1-3.1.5-.8,1-1.5,1.5-2.3.5-.8,1-1.6,1.6-2.3.6-.7,1.2-1.3,2-1.7.8-.4,1.6-.7,2.6-.7s2.6.5,3.6,1.5c1,1,1.6,2.1,1.6,3.5s-.4,1.7-1.1,2.7c-.7,1-1.6,2-2.5,3.1-1,1.1-2,2.2-3,3.3-1,1.1-1.8,2.2-2.4,3.2,3.7,0,7.1.1,10.2.2,3.1,0,6.5.2,10.1.4,1.9,0,3.3.4,4,1.1.7.7,1.1,1.4,1,2.1,0,.8-.3,1.4-.9,2-.6.6-1.3.9-2,.9-5-.1-9.8-.2-14.2,0-4.5,0-9.3.3-14.5.7-1.3,1.8-3.1,4.2-5.4,7.1-2.3,2.9-4.8,6.2-7.5,9.6-2.7,3.5-5.5,7.1-8.5,10.8-2.9,3.7-5.7,7.3-8.3,10.8-2.6,3.4-4.9,6.6-7,9.5-2,2.9-3.5,5.2-4.5,6.9-.2.4-.4.9-.6,1.4-.2.5-.4,1-.7,1.4-.2.4-.6.8-1,1.1-.4.3-1,.5-1.6.5-1.6,0-2.8-.1-3.6-.5-.8-.4-1.4-1-1.7-1.7-.3-.7-.3-1.6,0-2.5.3-1,.8-2,1.6-3.1Z"/>
        </g>
        <g>
          <path class="cls-3" d="M185.6,84.6c-.1-3.6.5-7,1.8-10.4,1.3-3.4,3.3-6.7,5.7-9.9,2.5-3.2,5.4-6.2,8.7-9.1,3.4-2.9,7-5.5,10.8-8,3.9-2.5,7.8-4.7,12-6.7,4.1-2,8.2-3.7,12.3-5.2,4-1.5,7.9-2.6,11.6-3.5,3.7-.8,7-1.3,10-1.5,1.9-.1,3.7,0,5.3.2,1.7.3,3.1.8,4.3,1.6,1.2.8,2.2,1.9,3,3.2.8,1.4,1.2,3.2,1.3,5.4,0,.9-.3,2.2-1,3.8-.8,1.6-1.7,3.3-3,5.1-1.2,1.8-2.6,3.7-4.2,5.5-1.6,1.8-3.2,3.5-4.8,5-1.6,1.5-3.2,2.7-4.7,3.7-1.5,1-2.9,1.5-4.1,1.6-1.5,0-2.8-.4-3.8-1.5-1-1-1.6-2.2-1.9-3.4-.3-1.3-.2-2.4.4-3.5.5-1.1,1.6-1.7,3.1-1.7.1,0,.6-.2,1.5-.7.8-.5,1.9-1.1,3.1-1.9,1.2-.8,2.5-1.7,3.9-2.7,1.4-1,2.6-2,3.8-3.1,1.2-1,2.1-2.1,2.9-3.1.8-1,1.1-1.9,1-2.6-.1-1.4-2.5-2.1-7.1-1.9-3.4.1-7.3.8-11.9,2.2-4.5,1.3-9.2,3.1-14,5.3-4.8,2.2-9.5,4.8-14.2,7.8-4.7,3-8.8,6.2-12.4,9.7-3.6,3.5-6.5,7.2-8.6,11.1-2.2,3.9-3.1,7.9-3,11.9.1,3.3.9,6,2.3,8.3,1.4,2.3,3.1,4.1,5.3,5.4,2.2,1.3,4.6,2.3,7.4,2.8,2.8.5,5.7.7,8.6.6,7.7-.3,15.1-1.7,22.2-4,7.1-2.4,13.8-5.7,20-10.1,1.3-.9,2.5-1.6,3.6-2.1,1.1-.5,1.9-.8,2.6-.8s1.2.5,1.1,1.5c0,1-.8,2.6-2.1,4.8-.4.7-1,1.4-1.8,2.1-.8.7-1.6,1.4-2.5,2.1-3,2.3-6.3,4.3-9.9,6-3.6,1.8-7.3,3.2-11.1,4.5-3.9,1.2-7.7,2.2-11.7,2.9-3.9.7-7.7,1.1-11.4,1.2-4.1.2-7.9-.4-11.5-1.7-3.6-1.3-6.7-3.2-9.4-5.7-2.7-2.5-4.9-5.5-6.6-8.9-1.7-3.5-2.6-7.3-2.8-11.3Z"/>
          <path class="cls-3" d="M260.2,97.7c-.1-1.2,0-2.1.3-2.7.3-.6.8-1.2,1.5-1.9,1-1.6,2.2-3.4,3.7-5.2,1.5-1.8,3.1-3.7,4.8-5.6l17.8-23.1c1.6-2.2,3.3-4.5,5.1-7,1.8-2.5,3.5-5,5.3-7.6,1.8-2.5,3.6-5,5.3-7.4,1.8-2.4,3.4-4.5,5-6.3,1.6-1.8,3-3.3,4.3-4.5,1.3-1.2,2.4-1.8,3.2-1.8.9,0,1.7.1,2.6.6.8.5,1.5,1.1,2.1,1.8.5.8.9,1.6,1,2.5s0,1.8-.5,2.7c-.8,1.4-2,3.1-3.6,4.8-1.6,1.8-3.3,3.7-5.3,5.8-2,2.1-4.1,4.3-6.3,6.6-2.3,2.3-4.5,4.7-6.8,7.2-1.1,1.1-2,2.2-2.9,3.3-.9,1.1-2,2.4-3.3,4.1,1.1-.5,2.4-1.1,3.8-1.8,1.4-.7,2.8-1.3,4.3-2,1.4-.6,2.8-1.1,4.1-1.6,1.3-.4,2.4-.6,3.4-.6s1.7.2,2.6.6c.8.4,1.6.9,2.3,1.6.7.7,1.2,1.4,1.6,2.3.4.9.6,1.8.6,2.6,0,1.6-.4,3.2-1.3,4.8-.8,1.7-1.8,3.3-2.8,4.9-1,1.6-1.9,3.3-2.8,4.9-.8,1.6-1.3,3.2-1.3,4.8s.8,2.7,2.5,2.7,3-.3,4.8-1c1.8-.7,3.7-1.6,5.7-2.6,2-1.1,3.9-2.2,5.8-3.4,1.9-1.2,3.6-2.4,5.2-3.4,1.5-1.1,2.8-1.9,3.8-2.6,1-.7,1.5-1,1.6-1,.7,0,1.2.3,1.5.9.3.6.4,1.2.2,1.6-.3,1-1.1,2.2-2.3,3.6-1.3,1.4-2.7,2.9-4.5,4.3-1.7,1.5-3.6,2.9-5.6,4.4-2,1.4-4,2.7-5.9,3.9-1.9,1.1-3.7,2-5.4,2.7-1.7.7-3,1-3.9,1s-2.7-.4-4-1.1c-1.4-.7-2.6-1.6-3.7-2.8-1.1-1.1-1.9-2.4-2.6-3.8-.7-1.4-1-2.7-1-4s.3-3.3.9-4.8c.6-1.5,1.3-3,2.1-4.4.8-1.4,1.6-2.8,2.4-4.2.8-1.4,1.5-2.9,1.9-4.4h-.3c-1.4,0-3.5.8-6.2,2.3-2.7,1.6-5.6,3.5-8.6,5.9-3.1,2.4-6.1,4.9-9.1,7.6-3,2.7-5.5,5.2-7.5,7.5-1.1,1.8-2.2,3.6-3.2,5.4-1,1.8-1.9,3.4-2.7,5-.7,1.3-1.5,2.2-2.4,2.8-.9.6-1.8.9-2.7.9s-2.2-.5-3.1-1.5c-.9-1-1.4-2.5-1.5-4.6Z"/>
          <path class="cls-3" d="M331.8,93.2c-.4.5-.8,1.1-1.2,1.8-.4.7-.9,1.3-1.5,1.9-.5.6-1.1,1.1-1.7,1.5-.6.4-1.2.6-1.9.6s-1.7-.4-2.5-1.1c-.9-.8-1.4-1.8-1.3-2.9s.4-2.3.9-3.4,1.3-2.2,2.1-3.2c.8-1,1.5-1.9,2.1-2.7,3-3.8,6.1-7.7,9.4-11.8,3.3-4,6.2-8.1,8.7-12.2.4-.6.8-1.2,1.4-2,.5-.8,1.1-1.4,1.8-2.1.7-.6,1.3-1.2,2.1-1.6.7-.4,1.5-.7,2.2-.7s1.1.2,1.7.5c.6.3,1.1.8,1.6,1.5.5.6.8,1.2.8,1.7,0,.5.1.9.1,1.2,0,.3.1.6.2.8.1.2.5.3,1,.3s1.3,0,2.4-.3c1.1-.2,2.6-.4,4.7-.8.7-.1,1.6-.3,2.8-.4,1.2-.2,2.4-.2,3.6-.2s1.8,0,2.6.2c.9.1,1.7.3,2.4.7.7.3,1.3.8,1.7,1.4.5.6.7,1.3.8,2.2.1,1.3-.2,2.2-1,2.7-.8.6-1.6.8-2.5.8s-1.6-.2-2.1-.8c-.7-.7-1.4-1-2.1-1s-.7,0-1,0c-.4,0-.8.2-1.3.3-4.7.8-8.8,1.9-12.3,3.4s-6.6,3.4-9.4,5.6c-2.8,2.3-5.5,4.9-7.9,7.8-2.4,3-5,6.3-7.5,10.1Z"/>
          <path class="cls-3" d="M372.1,84.7c0-1.2.5-2.8,1.4-4.7.9-1.9,2.2-4,3.7-6.3,1.5-2.2,3.2-4.4,5.1-6.7,1.9-2.2,3.8-4.2,5.6-6.1,1.9-1.8,3.6-3.3,5.3-4.4,1.7-1.1,3-1.7,4.1-1.7s1.3.2,2,.5c.7.3,1.4.8,2,1.4.6.6,1.1,1.2,1.5,1.8.4.7.6,1.3.6,1.9,0,1.1-.3,2-1,2.7-.7.8-1.5,1.3-2.4,1.6-1,.3-2.2.9-3.6,1.9-1.4.9-2.8,2.1-4.4,3.4-1.5,1.3-3.1,2.7-4.6,4.3-1.5,1.5-2.8,3.1-4,4.6-1.2,1.5-2.1,3-2.9,4.4-.8,1.4-1.1,2.6-1.1,3.7,0,1.6.5,2.5,1.4,2.8.9.3,2,.5,3.3.5s3.3-.7,5.9-2c2.5-1.3,5.3-3,8.4-5,3.1-2,6.2-4.2,9.5-6.6,3.3-2.4,6.4-4.6,9.3-6.6,1.7-1.3,2.9-1.9,3.6-1.9s.8.3.8.8-.1,1.2-.4,1.9c-.3.7-.6,1.4-.9,2-.4.7-.7,1.1-.8,1.3-2.4,2.8-5.2,5.6-8.4,8.4-3.2,2.9-6.4,5.4-9.8,7.8-3.4,2.3-6.7,4.2-9.9,5.7-3.3,1.5-6.2,2.2-8.8,2.2s-3.3-.4-4.6-1.3c-1.3-.8-2.4-1.9-3.2-3.3-.8-1.3-1.5-2.8-1.9-4.5-.4-1.6-.7-3.2-.7-4.7ZM403.1,45.7c0-.7.5-1.3,1.6-1.9,1-.6,2.1-.9,3.3-.9s1.2-.1,2.2-.4c.9-.3,1.8-.6,2.6-.9,1.4-.6,2.4-.8,3-.8s1,.3,1.2.8c.2.5.3,1.4.4,2.6,0,.9,0,1.6,0,2.3,0,.6-.3,1.2-.6,1.7-.3.5-.7,1-1.3,1.5-.6.5-1.4,1-2.3,1.6-1.9,1.3-3.6,2-5,2s-1.5-.3-2.2-.8c-.6-.5-1.2-1.2-1.6-1.9-.4-.8-.8-1.6-1-2.4-.2-.8-.3-1.6-.3-2.3Z"/>
          <path class="cls-3" d="M408.9,92.2c.9,0,2.1,0,3.8-.3,1.6-.2,3.3-.5,5-.9,1.7-.4,3.3-.9,4.7-1.6,1.5-.6,2.5-1.4,3-2.3,0-1.3-.4-2.6-1.3-3.7-.9-1.2-1.9-2.3-3-3.4s-2.2-2.3-3.3-3.6c-1.1-1.3-1.8-2.7-2.2-4.2-.2-.8.1-1.9.9-3.1.8-1.3,1.8-2.6,3.2-4,1.3-1.4,2.9-2.8,4.6-4.3,1.7-1.4,3.5-2.7,5.2-3.9,1.8-1.1,3.4-2.1,5-2.8,1.6-.7,2.9-1.1,4-1.1s2.3.3,3.1.9c.8.6,1.4,1.4,1.8,2.3.3.9.4,1.8.1,2.7-.3.9-.9,1.7-1.9,2.3-1.4.8-3,1.7-4.8,2.7-1.8,1-3.5,1.9-5.2,2.8-1.7.9-3.3,1.8-4.7,2.6-1.4.8-2.5,1.5-3.3,2.1,2.1,1.6,3.9,3.6,5.6,5.8,1.7,2.2,3.1,4.6,4.2,7,2.2-.8,4.3-1.7,6.3-2.7,2-1,3.8-2,5.6-3,1.8-1,3.4-2,4.9-2.9,1.5-.9,2.9-1.8,4.2-2.4.8-.5,1.5-.8,2.1-1,.6-.2,1.1-.2,1.6-.2.7,0,1.2.2,1.4.6.2.4.4.9.4,1.4s-.1,1.1-.3,1.6c-.2.5-.5.9-.7,1.2-.4.4-1.3,1.1-2.9,2.3-1.6,1.2-3.5,2.5-5.9,4-2.4,1.5-5.1,3.2-8.1,4.9-3,1.7-6.3,3.4-9.6,4.9-1.3,1.3-3,2.5-5.2,3.7-2.2,1.1-4.5,2.1-6.8,2.9-2.3.8-4.5,1.4-6.4,1.8-1.9.4-3.3.7-4,.7-1.3,0-2.3-.5-3-1.5-.7-1-1-2.1-1-3.3,0-1.2.2-2.3.8-3.3.5-1,1.3-1.6,2.3-1.6Z"/>
          <path class="cls-3" d="M540.5,112.9c.3-.4,1-1.3,2.1-2.7,1.1-1.4,2.4-3.1,3.9-5.2s3.2-4.4,5.1-6.9c1.9-2.5,3.8-5.1,5.6-7.8,1.9-2.6,3.7-5.2,5.5-7.7,1.8-2.5,3.3-4.7,4.7-6.6,1.4-1.9,2.5-3.5,3.3-4.7.8-1.2,1.2-1.9,1.2-1.9-3.1.2-6.8.4-11.1.6s-8.8.4-13.3.5c-4.5.2-8.7.3-12.8.5-4,.2-7.3.3-9.7.4-.3,0-.7.4-1.4,1.1-.7.8-1.4,1.7-2.2,2.8-.8,1.1-1.6,2.3-2.4,3.6-.8,1.3-1.6,2.6-2.4,3.8-.8,1.2-1.4,2.2-1.9,3.1-.5.9-.9,1.4-1.1,1.7-.6.8-1.4,2.1-2.6,3.8-1.2,1.7-2.3,3.5-3.5,5.5-1.2,1.9-2.2,3.7-3.1,5.5-.9,1.7-1.4,3-1.4,3.8,0,1.4-.4,2.4-1.3,3-.9.6-1.9.9-3,.9s-1.8-.2-2.6-.6c-.9-.4-1.6-.9-2.2-1.6-.6-.7-.9-1.6-1-2.6,0-1,.2-2.2,1-3.4.7-1.2,1.6-2.6,2.7-4.3,1.1-1.7,2.3-3.5,3.7-5.5,1.3-1.9,2.7-3.9,4-5.9,1.4-2,2.7-3.9,3.9-5.6,1.2-1.8,2.2-3.3,3.1-4.7.9-1.3,1.6-2.3,1.9-3-2.3.1-4.6.4-7,.8-2.4.4-4.8.7-7,.7s-3.2-.4-4.2-1.1c-1-.8-1.5-2-1.5-3.9s.2-2.4.5-2.9c.3-.6.8-.9,1.3-1.1.6-.2,1.3-.2,2.1,0,.8.1,1.8.2,2.9.2s2.5,0,4,0c1.6,0,3.2,0,5-.1,1.8,0,3.5-.2,5.2-.3,1.7-.1,3.2-.2,4.5-.3.1,0,.4-.2.8-.5.4-.2.7-.5.7-.8.4-.7,1-1.7,1.9-3.1s2-3.1,3.2-4.9c1.3-1.9,2.6-3.9,4-6,1.4-2.1,2.9-4.2,4.3-6.3,1.4-2.1,2.8-4,4.1-5.8s2.4-3.3,3.4-4.6c.6-.8,1.4-1.3,2.2-1.6.8-.3,1.7-.5,2.6-.5s1.8.2,2.7.5c.9.3,1.6.8,2.1,1.3.5.5.8,1.1.9,1.8,0,.7-.2,1.4-.8,2.1-.3.4-1,1.2-2,2.4s-2.2,2.7-3.6,4.5c-1.4,1.8-2.9,3.7-4.4,5.7-1.6,2-3.1,4-4.5,6-1.4,1.9-2.7,3.7-3.9,5.4-1.1,1.7-2,3-2.5,4h.3c1,0,2.6,0,4.7,0,2.2,0,4.7-.2,7.5-.3,2.9-.1,5.9-.3,9.1-.4,3.2-.2,6.4-.3,9.5-.5,3.1-.2,6-.3,8.6-.4,2.7-.1,4.8-.2,6.5-.3.4-.2,1.2-1,2.3-2.4,1.1-1.4,2.2-3.1,3.4-4.8,1.2-1.8,2.3-3.5,3.3-5.2,1-1.7,1.7-2.8,2.1-3.3,1.1-1.7,2.1-3.4,3.1-5.2,1-1.8,1.6-3.7,1.6-5.7s.2-1.3.6-1.7c.4-.4.8-.8,1.4-1.1.6-.3,1.2-.5,1.8-.6.7-.1,1.3-.2,1.8-.2.9,0,1.7.3,2.4.8.7.5,1.2,1.2,1.6,2,.4.8.8,1.7,1,2.6.2.9.3,1.8.3,2.7s-.3.8-.9,1.8c-.6,1-1.4,2.2-2.4,3.7-1,1.5-2.1,3.1-3.2,4.8-1.2,1.7-2.3,3.4-3.4,4.9-1.1,1.6-2.1,2.9-2.9,4.1-.8,1.2-1.3,2-1.6,2.4h1.4c.3,0,.7,0,1,0,.3,0,.7,0,1.1,0h1.4c.9,0,1.7.4,2.4,1.1.7.7,1,2.2,1.1,4.4,0,.8-.5,1.3-1.6,1.5-1.1.3-2.4.4-3.9.3-1.5,0-3.1-.1-4.8-.2-1.7-.1-3.1-.1-4.3,0-2.5,3.4-5.2,7.2-8.2,11.3-2.9,4.1-5.9,8.3-8.8,12.5-2.9,4.3-5.8,8.5-8.6,12.6-2.8,4.2-5.3,8.1-7.6,11.7-.3.5-.6,1.1-.9,1.8-.4.7-.8,1.3-1.2,2-.4.6-.9,1.2-1.5,1.6-.5.5-1.1.7-1.8.7-1.3,0-2.4-.4-3.2-1.1-.8-.7-1.4-1.6-1.7-2.7-.3-1.1-.4-2.2-.1-3.3.2-1.1.7-2.1,1.6-3Z"/>
          <path class="cls-3" d="M589.2,91.5c0-1.1.5-2.6,1.6-4.7,1.1-2.1,2.4-4.4,4.1-6.9,1.7-2.5,3.6-5.1,5.7-7.7,2.1-2.6,4.2-5,6.2-7.1,2-2.1,3.9-3.9,5.6-5.3,1.8-1.4,3.1-2.1,4.1-2.1s1,.2,1.6.6c.5.4,1,.9,1.5,1.5s.8,1.2,1.1,1.8c.3.6.5,1.2.5,1.6s-.5.9-1.6,2.1c-1.1,1.1-2.4,2.5-4,4.1-1.6,1.6-3.4,3.4-5.3,5.5-1.9,2-3.7,4-5.3,5.9-1.6,1.9-3,3.8-4.1,5.5-1.1,1.8-1.7,3.2-1.7,4.4v.2c.8,0,2.1-.7,3.7-2,1.7-1.3,3.6-2.8,5.7-4.7,2.1-1.9,4.4-4,6.7-6.3,2.3-2.3,4.6-4.5,6.7-6.6,2.1-2.2,3.9-4.1,5.5-5.8,1.6-1.7,2.7-3,3.3-3.8.6-.8,1.3-1.6,1.9-2.3.7-.7,1.6-1.1,2.8-1.1s1.1.2,1.7.5c.6.3,1.1.7,1.6,1.2.5.5.9,1,1.2,1.6.3.6.5,1.2.5,1.7,0,.9-.6,2.1-1.8,3.6-1.2,1.4-2.6,3-4,4.6s-2.8,3.2-4,4.8c-1.2,1.6-1.8,3.1-1.8,4.4s.2,3.4.5,4.7c.3,1.3,1.1,2,2.3,2s3.5-.5,5.6-1.6c2.1-1.1,4.3-2.4,6.5-4,2.2-1.6,4.4-3.3,6.6-5.2,2.2-1.8,4.1-3.6,5.9-5.1,1.4-1.3,2.8-1.9,4.2-1.9s1.3.2,1.8.5c.5.3.8.8,1,1.3.2.5.2,1.1,0,1.7-.2.7-.6,1.3-1.3,1.9-2.1,1.9-4.5,4.1-7.2,6.5-2.8,2.4-5.6,4.7-8.5,6.8-2.9,2.1-5.8,3.9-8.6,5.3-2.8,1.4-5.3,2.1-7.5,2.1s-3.2-.4-4.3-1.3c-1.1-.9-2-2-2.7-3.3-.7-1.3-1.1-2.7-1.4-4.3-.3-1.5-.4-3-.4-4.4l-.2-.3c-.5,0-1.3.5-2.3,1.5-1,.9-2.2,2-3.5,3.3-1.3,1.3-2.7,2.7-4.2,4.1-1.5,1.5-3,2.8-4.5,4.1-1.5,1.3-2.9,2.3-4.3,3.1-1.4.8-2.6,1.3-3.6,1.3s-2-.3-3.1-.8c-1.1-.5-2.1-1.1-3.1-1.9-1-.8-1.8-1.7-2.4-2.6-.7-1-1-1.9-1-2.9Z"/>
          <path class="cls-3" d="M649.9,93.2c-.4.5-.8,1.1-1.2,1.8-.4.7-.9,1.3-1.5,1.9-.5.6-1.1,1.1-1.7,1.5-.6.4-1.2.6-1.9.6s-1.7-.4-2.5-1.1c-.9-.8-1.4-1.8-1.3-2.9,0-1.1.4-2.3.9-3.4.6-1.1,1.3-2.2,2.1-3.2.8-1,1.5-1.9,2.1-2.7,3-3.8,6.1-7.7,9.4-11.8,3.3-4,6.2-8.1,8.7-12.2.4-.6.8-1.2,1.4-2,.5-.8,1.1-1.4,1.8-2.1.7-.6,1.3-1.2,2.1-1.6.7-.4,1.5-.7,2.2-.7s1.1.2,1.7.5c.6.3,1.1.8,1.6,1.5.5.6.8,1.2.8,1.7,0,.5.1.9.1,1.2,0,.3.1.6.2.8.1.2.5.3,1,.3s1.3,0,2.4-.3c1.1-.2,2.6-.4,4.7-.8.7-.1,1.6-.3,2.8-.4,1.2-.2,2.4-.2,3.6-.2s1.8,0,2.6.2c.9.1,1.7.3,2.4.7.7.3,1.3.8,1.7,1.4.5.6.7,1.3.8,2.2.1,1.3-.2,2.2-1,2.7-.8.6-1.6.8-2.5.8s-1.6-.2-2.1-.8c-.7-.7-1.4-1-2.1-1s-.7,0-1,0c-.4,0-.8.2-1.3.3-4.7.8-8.8,1.9-12.3,3.4-3.5,1.5-6.6,3.4-9.4,5.6-2.8,2.3-5.5,4.9-7.9,7.8-2.4,3-5,6.3-7.5,10.1Z"/>
          <path class="cls-3" d="M691.3,92.2c.9,0,2.1,0,3.8-.3,1.6-.2,3.3-.5,5-.9,1.7-.4,3.3-.9,4.7-1.6,1.5-.6,2.5-1.4,3-2.3,0-1.3-.4-2.6-1.3-3.7-.9-1.2-1.9-2.3-3-3.4s-2.2-2.3-3.3-3.6c-1.1-1.3-1.8-2.7-2.2-4.2-.2-.8.1-1.9.9-3.1.8-1.3,1.8-2.6,3.2-4,1.3-1.4,2.9-2.8,4.6-4.3,1.7-1.4,3.5-2.7,5.2-3.9,1.8-1.1,3.4-2.1,5-2.8,1.6-.7,2.9-1.1,4-1.1s2.3.3,3.1.9c.8.6,1.4,1.4,1.8,2.3.3.9.4,1.8.1,2.7s-.9,1.7-1.9,2.3c-1.4.8-3,1.7-4.8,2.7-1.8,1-3.5,1.9-5.2,2.8-1.7.9-3.3,1.8-4.7,2.6-1.4.8-2.5,1.5-3.3,2.1,2.1,1.6,3.9,3.6,5.6,5.8,1.7,2.2,3.1,4.6,4.2,7,2.2-.8,4.3-1.7,6.3-2.7,2-1,3.8-2,5.6-3,1.8-1,3.4-2,4.9-2.9,1.5-.9,2.9-1.8,4.2-2.4.8-.5,1.5-.8,2.1-1,.6-.2,1.1-.2,1.6-.2.7,0,1.2.2,1.4.6.2.4.4.9.4,1.4s-.1,1.1-.3,1.6c-.2.5-.5.9-.7,1.2-.4.4-1.3,1.1-2.9,2.3-1.6,1.2-3.5,2.5-5.9,4-2.4,1.5-5.1,3.2-8.1,4.9-3,1.7-6.3,3.4-9.6,4.9-1.3,1.3-3,2.5-5.2,3.7-2.2,1.1-4.5,2.1-6.8,2.9-2.3.8-4.5,1.4-6.4,1.8-1.9.4-3.3.7-4,.7-1.3,0-2.3-.5-3-1.5-.7-1-1-2.1-1-3.3,0-1.2.2-2.3.8-3.3.5-1,1.3-1.6,2.3-1.6Z"/>
          <path class="cls-3" d="M717.6,101.2c1.3-1.9,3.1-4.4,5.2-7.3s4.5-6.1,7-9.4c2.5-3.4,5.1-6.8,7.8-10.3,2.7-3.5,5.2-6.8,7.6-9.9,2.4-3.1,4.5-5.9,6.3-8.4,1.8-2.5,3.1-4.3,3.9-5.6-1.8,0-3.7.2-5.9.5-2.2.3-4.4.6-6.7,1-2.3.4-4.5.8-6.6,1.2-2.1.4-4.1.8-5.8,1.2-.8.1-1.4-.1-2-.7-.6-.6-1-1.4-1.3-2.3-.3-.9-.3-1.9-.1-2.9.2-1,.6-1.8,1.4-2.4.2-.2,1.1-.4,2.6-.6,1.5-.2,3.4-.4,5.6-.7,2.2-.2,4.6-.4,7.2-.6,2.6-.2,5-.4,7.4-.5,2.4-.2,4.5-.3,6.3-.4,1.8,0,3.1-.1,3.8-.1.9-1.3,1.7-2.3,2.3-3,.6-.8,1.1-1.5,1.6-2.2.5-.7,1-1.4,1.6-2.2.5-.8,1.2-1.8,2.1-3.1.5-.8,1-1.5,1.5-2.3.5-.8,1-1.6,1.6-2.3.6-.7,1.2-1.3,2-1.7.8-.4,1.6-.7,2.6-.7s2.6.5,3.6,1.5c1,1,1.6,2.1,1.6,3.5s-.4,1.7-1.1,2.7c-.7,1-1.6,2-2.5,3.1-1,1.1-2,2.2-3,3.3-1,1.1-1.8,2.2-2.4,3.2,3.7,0,7.1.1,10.2.2,3.1,0,6.5.2,10.1.4,1.9,0,3.3.4,4,1.1.7.7,1.1,1.4,1,2.1,0,.8-.3,1.4-.9,2-.6.6-1.3.9-2,.9-5-.1-9.8-.2-14.2,0-4.5,0-9.3.3-14.5.7-1.3,1.8-3.1,4.2-5.4,7.1-2.3,2.9-4.8,6.2-7.5,9.6-2.7,3.5-5.5,7.1-8.5,10.8-2.9,3.7-5.7,7.3-8.3,10.8-2.6,3.4-4.9,6.6-7,9.5-2,2.9-3.5,5.2-4.5,6.9-.2.4-.4.9-.6,1.4-.2.5-.4,1-.7,1.4-.2.4-.6.8-1,1.1-.4.3-1,.5-1.6.5-1.6,0-2.8-.1-3.6-.5-.8-.4-1.4-1-1.7-1.7-.3-.7-.3-1.6,0-2.5.3-1,.8-2,1.6-3.1Z"/>
        </g>
        <g>
          <path class="cls-3" d="M188.6,132.7h4.8l7.3,18,7.3-18h4.8v25.2h-4.8v-12l-4.9,12h-4.8l-4.9-12v12h-4.8v-25.2Z"/>
          <path class="cls-3" d="M231.4,152.7h-8.9l-1.9,5.2h-5.2l9.2-25.2h4.8l9.2,25.2h-5.2l-1.9-5.2ZM224.1,148.3h5.7l-2.8-7.8-2.8,7.8Z"/>
          <path class="cls-3" d="M254.3,148.1l5.6,9.8h-5.6l-5.3-9.2h-3v9.2h-4.8v-25.2h9.1c1.5,0,2.9.2,4.1.6s2.2,1,3.1,1.7c.9.7,1.5,1.5,2,2.5.5,1,.7,2,.7,3.2,0,1.8-.5,3.4-1.6,4.7-1,1.3-2.5,2.2-4.3,2.8ZM246.1,137.1v7.2h4.1c1.7,0,2.9-.3,3.8-1s1.3-1.5,1.3-2.6-.4-2-1.3-2.6c-.8-.6-2.1-1-3.8-1h-4.1Z"/>
          <path class="cls-3" d="M272.2,144.1l10,13.8h-6l-7.2-10-1.2,1.4v8.6h-4.8v-25.2h4.8v9.5l8-9.5h6l-9.6,11.4Z"/>
          <path class="cls-3" d="M289.4,143.1h10.6v4.4h-10.6v6h12.2v4.4h-17v-25.2h16.6v4.4h-11.8v6Z"/>
          <path class="cls-3" d="M304,137.1v-4.4h18.7v4.4h-7v20.8h-4.8v-20.8h-7Z"/>
          <path class="cls-3" d="M325.5,132.7h4.8v25.2h-4.8v-25.2Z"/>
          <path class="cls-3" d="M348.4,132.7h4.8v25.2h-4.8l-10.2-16.1v16.1h-4.8v-25.2h4.8l10.2,16.2v-16.2Z"/>
          <path class="cls-3" d="M375.3,149.9h-6.3v-4.4h12.2v1.2c0,1.9-.4,3.6-1.1,5-.7,1.4-1.6,2.6-2.8,3.6s-2.5,1.7-4,2.2c-1.5.5-3.1.7-4.7.7s-3.4-.3-4.9-1c-1.5-.6-2.9-1.5-4-2.7s-2.1-2.5-2.7-4.1c-.7-1.6-1-3.3-1-5.2s.3-3.6,1-5.2c.7-1.6,1.6-2.9,2.7-4.1,1.2-1.1,2.5-2,4-2.7,1.5-.6,3.2-1,4.9-1s3.2.2,4.6.7c1.4.5,2.7,1.1,3.7,2,1.1.9,2,1.9,2.7,3.1s1.2,2.6,1.4,4.1h-5.2c-.5-1.6-1.4-2.8-2.6-3.7-1.2-.9-2.7-1.3-4.6-1.3s-2.1.2-3,.6c-.9.4-1.7.9-2.4,1.6-.7.7-1.2,1.6-1.7,2.5-.4,1-.6,2.1-.6,3.4s.2,2.3.6,3.4c.4,1,1,1.9,1.7,2.6.7.7,1.5,1.3,2.4,1.6.9.4,1.9.6,3,.6s2.7-.3,3.9-.8c1.2-.6,2.1-1.5,2.7-2.7Z"/>
          <path class="cls-3" d="M409.8,148.1c.2-.4.5-.9.7-1.3.2-.4.4-.9.7-1.3l4,2.2c-.6,1.2-1.2,2.4-2,3.5,1,1,1.9,2.1,2.5,3.2.7,1.1,1,2.3,1,3.5h-4.7c0-.5-.2-1-.5-1.5-.3-.5-.8-1.1-1.3-1.7-1.2,1.1-2.5,2-3.9,2.6s-2.8.9-4.2.9c-2.6,0-4.6-.6-6.1-1.9-1.5-1.3-2.2-2.9-2.2-5s.2-2,.5-2.8c.3-.8.7-1.5,1.2-2.1.5-.6,1.1-1.1,1.8-1.6.7-.4,1.4-.8,2.1-1.1-.5-.7-.8-1.5-1-2.3-.2-.8-.4-1.6-.4-2.4s.2-1.8.6-2.6c.4-.8.9-1.5,1.6-2.1.7-.6,1.5-1.1,2.4-1.4.9-.3,1.9-.5,2.9-.5s1.9.2,2.7.5c.8.3,1.6.8,2.2,1.4.6.6,1.1,1.3,1.5,2.1.3.8.5,1.7.5,2.6s-.2,1.9-.7,2.6c-.4.7-1,1.4-1.6,1.9-.6.5-1.2,1-1.9,1.3-.7.3-1.2.6-1.6.7.5.5,1,.9,1.6,1.4.5.5,1.1.9,1.6,1.4ZM402,147.2c-1,.4-1.8.9-2.4,1.4-.6.5-.9,1.2-.9,2.1s.3,1.5,1,2c.7.5,1.5.8,2.5.8s1.8-.2,2.6-.5c.8-.3,1.5-.7,2.1-1.3-.8-.7-1.6-1.4-2.5-2.2-.8-.8-1.6-1.6-2.4-2.4ZM403.8,142.5c.3-.1.7-.2,1.2-.4s.8-.4,1.2-.6c.4-.3.7-.6.9-.9.3-.4.4-.8.4-1.3s-.2-1-.6-1.5-1-.6-1.7-.6-1.3.2-1.7.7c-.4.5-.6,1.1-.6,1.8s0,1,.3,1.4.4,1,.8,1.4Z"/>
          <path class="cls-3" d="M449.3,132.7l4.8,16.2,4.8-16.2h5.2l-7.6,25.2h-4.8l-5-16.6-5,16.6h-4.8l-7.6-25.2h5.2l4.8,16.2,4.8-16.2h5.2Z"/>
          <path class="cls-3" d="M471.6,143.1h10.6v4.4h-10.6v6h12.2v4.4h-17v-25.2h16.6v4.4h-11.8v6Z"/>
          <path class="cls-3" d="M502.5,144c2.5,1.1,3.7,3.1,3.7,6s-.8,4.5-2.5,5.8-4.1,2-7.1,2h-9.9v-25.2h10.1c1.2,0,2.3.2,3.2.5,1,.3,1.8.8,2.5,1.4.7.6,1.2,1.3,1.6,2,.4.8.5,1.6.5,2.6,0,2.3-.7,3.9-2,4.8ZM491.4,142.3h4.8c1.2,0,2-.2,2.5-.7.5-.5.8-1.1.8-1.9s-.2-1.5-.7-1.9c-.5-.4-1.4-.6-2.6-.6h-4.7v5.2ZM491.4,153.5h4.9c1.7,0,3-.3,3.7-.9.7-.6,1.1-1.5,1.1-2.6s-.4-2-1.2-2.5-2-.8-3.7-.8h-4.9v6.8Z"/>
          <path class="cls-3" d="M519.2,132.7h8.3c2,0,3.7.3,5.3.9,1.6.6,2.9,1.5,4,2.6,1.1,1.1,2,2.4,2.5,4,.6,1.5.9,3.2.9,5.1s-.3,3.5-.9,5.1c-.6,1.5-1.4,2.9-2.5,4-1.1,1.1-2.4,2-4,2.6-1.6.6-3.3.9-5.3.9h-8.3v-25.2ZM524,137.1v16.4h3.5c2.6,0,4.5-.7,5.8-2.2s1.9-3.5,1.9-6-.6-4.5-1.9-6c-1.3-1.5-3.2-2.2-5.8-2.2h-3.5Z"/>
          <path class="cls-3" d="M547.8,143.1h10.6v4.4h-10.6v6h12.2v4.4h-17v-25.2h16.6v4.4h-11.8v6Z"/>
          <path class="cls-3" d="M562.2,132.7h5.2l6.4,17.5,6.4-17.5h5.2l-9.2,25.2h-4.8l-9.2-25.2Z"/>
          <path class="cls-3" d="M592.9,143.1h10.6v4.4h-10.6v6h12.2v4.4h-17v-25.2h16.6v4.4h-11.8v6Z"/>
          <path class="cls-3" d="M612.7,153.5h12.2v4.4h-17v-25.2h4.8v20.8Z"/>
          <path class="cls-3" d="M625.3,145.3c0-1.9.3-3.6,1-5.2.7-1.6,1.6-2.9,2.7-4.1,1.2-1.1,2.5-2,4-2.7s3.2-1,4.9-1,3.4.3,4.9,1c1.5.6,2.9,1.5,4,2.7,1.2,1.1,2.1,2.5,2.7,4.1.7,1.6,1,3.3,1,5.2s-.3,3.6-1,5.2c-.7,1.6-1.6,3-2.7,4.1s-2.5,2-4,2.7c-1.5.6-3.2,1-4.9,1s-3.4-.3-4.9-1c-1.5-.6-2.9-1.5-4-2.7s-2.1-2.5-2.7-4.1c-.7-1.6-1-3.3-1-5.2ZM630.3,145.3c0,1.2.2,2.3.6,3.4.4,1,1,1.9,1.7,2.6.7.7,1.5,1.3,2.4,1.6.9.4,1.9.6,3,.6s2.1-.2,3-.6c.9-.4,1.8-.9,2.5-1.6s1.3-1.6,1.7-2.6c.4-1,.6-2.1.6-3.4s-.2-2.4-.6-3.4c-.4-1-1-1.8-1.7-2.5-.7-.7-1.5-1.2-2.5-1.6-.9-.4-1.9-.6-3-.6s-2.1.2-3,.6c-.9.4-1.7.9-2.4,1.6-.7.7-1.2,1.6-1.7,2.5-.4,1-.6,2.1-.6,3.4Z"/>
          <path class="cls-3" d="M653.6,132.7h9.1c1.5,0,2.9.2,4.1.6,1.2.4,2.2,1,3.1,1.8.9.8,1.5,1.7,2,2.7.5,1,.7,2.2.7,3.4s-.2,2.4-.7,3.5c-.5,1.1-1.1,1.9-2,2.7-.9.7-1.9,1.3-3.1,1.7-1.2.4-2.5.6-4,.6h-4.3v8.2h-4.8v-25.2ZM658.4,137.1v8.2h4.1c1.7,0,2.9-.4,3.8-1.1.8-.7,1.3-1.7,1.3-3s-.4-2.3-1.3-3c-.8-.7-2.1-1.1-3.8-1.1h-4.1Z"/>
          <path class="cls-3" d="M675.3,132.7h4.8l7.3,18,7.3-18h4.8v25.2h-4.8v-12l-4.9,12h-4.8l-4.9-12v12h-4.8v-25.2Z"/>
          <path class="cls-3" d="M707.3,143.1h10.6v4.4h-10.6v6h12.2v4.4h-17v-25.2h16.6v4.4h-11.8v6Z"/>
          <path class="cls-3" d="M737.3,132.7h4.8v25.2h-4.8l-10.2-16.1v16.1h-4.8v-25.2h4.8l10.2,16.2v-16.2Z"/>
          <path class="cls-3" d="M744.9,137.1v-4.4h18.7v4.4h-7v20.8h-4.8v-20.8h-7Z"/>
        </g>
        <g>
          <g class="cls-4">
            <rect class="cls-2" x="125.8" y="18" width="0" height="0"/>
          </g>
          <g>
            <path class="cls-3" d="M119.6,142.1c4.4,16.3.9,36.7-8.3,49.9,10.9-9.4,28.8-36.8,24-54.7-4-14.9-21.3-16.1-15.7,4.8Z"/>
            <path class="cls-3" d="M60.2,49.1c2.1-2.9,4.5-5.6,7.4-8.2h-22.8c11,1.6,15.4,8.2,15.4,8.2Z"/>
            <path class="cls-3" d="M147.8,93.7l-23.7,16.1c0-13.3,25.6-16.8,23.7-32.9l-9.1-6.5c-.6-.4-.8-1.1-.6-1.8.2-.7.8-1.2,1.5-1.3l16.1-1.4-21.8-17.5,7.9,1.7c-6.2-7.2-13.9-13.1-13.9-13.1l-2.2-19c-11.5-6.9-24.9-10.2-38.6-9.3,0,0-55.7-.6-77.3,58.1l10.6-4.8h0c-2,6.6-3.1,13.6-3.1,20.7,0,19.4,8,37.4,22.2,49.7l68.2,57.2c11.1-16,12.4-39.7,3-53.8-21.9-32.5-62-33.6-28.8-83.2-12.4,29.2,4.1,41.1,27.6,22.9-17.9,20.1-8.5,41.3-8.5,41.3,25.9-5.9,35.8,11,38.2,16.4,3-2.2,8.6-7.6,10.6-18.2,0,0,.1,7.9-1.3,14.2,11.1-11.2,10.7-25.4-.6-35.6ZM49.5,83.1l7.3-3.5s-6,28.2,21.7,56.9c0,0-18.4-8.9-31.3-35.4l-6.3,3.9c-2.8-15.5,1.9-34.4,8.3-46.7-2.2,1.4-4.7,3.5-6.8,5.4-10-21.1-1.3-29.2,10.7-29.1l27.8.2h0s-26.1,16.9-31.4,48.4ZM103.1,55.9l-7.2.8,7.1-8,13.6.2,2.4,6.6,7.7,5.5-23.5-5.1Z"/>
            <path class="cls-3" d="M158.7,72.3l-6.7,4.6c-2.2,10.7-.7,10.5,4.7,19.2,0,0,6.5-7.9,2.1-23.8Z"/>
          </g>
        </g>
      </g>
    </g>
  </g>
</svg>